<svg width="73" height="73" viewBox="0 0 73 73" fill="none" xmlns="http://www.w3.org/2000/svg">
<g filter="url(#filter0_d_173_1377)">
<rect x="10" y="6" width="53" height="53" rx="3" fill="white"/>
</g>
<path d="M43.2222 45C43.2222 42.5699 39.9887 40.6 36 40.6C32.0113 40.6 28.7778 42.5699 28.7778 45M49 40.6005C49 38.7963 47.2174 37.2456 44.6667 36.5667M23 40.6005C23 38.7963 24.7826 37.2456 27.3333 36.5667M44.6667 30.6796C45.5532 29.874 46.1111 28.7031 46.1111 27.4C46.1111 24.9699 44.171 23 41.7778 23C40.6679 23 39.6555 23.4237 38.8889 24.1204M27.3333 30.6796C26.4468 29.874 25.8889 28.7031 25.8889 27.4C25.8889 24.9699 27.829 23 30.2222 23C31.3321 23 32.3445 23.4237 33.1111 24.1204M36 36.2C33.6068 36.2 31.6667 34.2301 31.6667 31.8C31.6667 29.3699 33.6068 27.4 36 27.4C38.3932 27.4 40.3333 29.3699 40.3333 31.8C40.3333 34.2301 38.3932 36.2 36 36.2Z" stroke="#39639C" stroke-width="2" stroke-linecap="round" stroke-linejoin="round"/>
<defs>
<filter id="filter0_d_173_1377" x="0" y="0" width="73" height="73" filterUnits="userSpaceOnUse" color-interpolation-filters="sRGB">
<feFlood flood-opacity="0" result="BackgroundImageFix"/>
<feColorMatrix in="SourceAlpha" type="matrix" values="0 0 0 0 0 0 0 0 0 0 0 0 0 0 0 0 0 0 127 0" result="hardAlpha"/>
<feOffset dy="4"/>
<feGaussianBlur stdDeviation="5"/>
<feComposite in2="hardAlpha" operator="out"/>
<feColorMatrix type="matrix" values="0 0 0 0 0 0 0 0 0 0 0 0 0 0 0 0 0 0 0.25 0"/>
<feBlend mode="normal" in2="BackgroundImageFix" result="effect1_dropShadow_173_1377"/>
<feBlend mode="normal" in="SourceGraphic" in2="effect1_dropShadow_173_1377" result="shape"/>
</filter>
</defs>
</svg>
