<svg width="29" height="29" viewBox="0 0 29 29" fill="none" xmlns="http://www.w3.org/2000/svg">
<path d="M3.0249 22.5998C3.0249 20.6906 3.0249 19.736 3.61801 19.1429C4.21112 18.5498 5.16571 18.5498 7.0749 18.5498H7.7499C9.02269 18.5498 9.65909 18.5498 10.0545 18.9452C10.4499 19.3406 10.4499 19.977 10.4499 21.2498V27.9998H3.0249V22.5998Z" stroke="#39639D" stroke-width="2" stroke-linecap="round" stroke-linejoin="round"/>
<path d="M18.5498 23.95C18.5498 22.6772 18.5498 22.0408 18.9452 21.6454C19.3406 21.25 19.977 21.25 21.2498 21.25H21.9248C23.834 21.25 24.7886 21.25 25.3817 21.8431C25.9748 22.4362 25.9748 23.3908 25.9748 25.3V28H18.5498V23.95Z" stroke="#39639D" stroke-width="2" stroke-linecap="round" stroke-linejoin="round"/>
<path d="M1 28H28" stroke="#39639D" stroke-width="2" stroke-linecap="round" stroke-linejoin="round"/>
<path d="M10.4502 19.8996C10.4502 17.9904 10.4502 17.0358 11.0433 16.4427C11.6364 15.8496 12.591 15.8496 14.5002 15.8496C16.4094 15.8496 17.364 15.8496 17.9571 16.4427C18.5502 17.0358 18.5502 17.9904 18.5502 19.8996V27.9996H10.4502V19.8996Z" stroke="#39639D" stroke-width="2" stroke-linecap="round" stroke-linejoin="round"/>
<path d="M15.433 1.77986L16.3833 3.69615C16.5129 3.96291 16.8585 4.21878 17.15 4.26777L18.8724 4.55631C19.9739 4.7414 20.2331 5.54712 19.4394 6.34195L18.1003 7.69207C17.8736 7.92071 17.7494 8.36168 17.8196 8.67743L18.2029 10.3487C18.5053 11.6716 17.8088 12.1834 16.6479 11.492L15.0335 10.5284C14.7419 10.3542 14.2614 10.3542 13.9644 10.5284L12.35 11.492C11.1945 12.1834 10.4926 11.6662 10.7949 10.3487L11.1783 8.67743C11.2485 8.36168 11.1243 7.92071 10.8975 7.69207L9.55847 6.34195C8.77016 5.54712 9.02393 4.7414 10.1254 4.55631L11.8478 4.26777C12.134 4.21878 12.4795 3.96291 12.6091 3.69615L13.5594 1.77986C14.0778 0.740048 14.9201 0.740048 15.433 1.77986Z" stroke="#39639D" stroke-width="2" stroke-linecap="round" stroke-linejoin="round"/>
</svg>
